<svg width="88" height="88" viewBox="0 0 88 88" fill="none" xmlns="http://www.w3.org/2000/svg">
<path d="M43.9113 87.003C38.1643 87.057 32.4636 85.9717 27.1385 83.8098C21.8134 81.6479 16.9694 78.4523 12.8865 74.4075C8.8035 70.3628 5.56249 65.549 3.35066 60.2445C1.13882 54.9399 0 49.2497 0 43.5024C0 37.7552 1.13882 32.0649 3.35066 26.7604C5.56249 21.4558 8.8035 16.6421 12.8865 12.5974C16.9694 8.5526 21.8134 5.35697 27.1385 3.19508C32.4636 1.0332 38.1643 -0.0520909 43.9113 0.0019213H44.3378C44.6424 0.0047963 44.9381 0.105456 45.1812 0.289079C45.4243 0.472702 45.602 0.729573 45.6881 1.02182C45.7741 1.31407 45.7641 1.62623 45.6593 1.91232C45.5546 2.19841 45.3607 2.44328 45.1062 2.61084C41.557 4.921 38.577 8.00483 36.3897 11.631C34.2024 15.2572 32.8645 19.3316 32.4765 23.5486C32.0885 27.7656 32.6604 32.0157 34.1494 35.9802C35.6383 39.9446 38.0056 43.5204 41.0737 46.4394C44.1417 49.3584 47.831 51.5448 51.8646 52.8346C55.8982 54.1244 60.1715 54.4841 64.3639 53.8867C68.5564 53.2894 72.5592 51.7504 76.0721 49.3854C79.5849 47.0203 82.5166 43.8905 84.6472 40.2307C84.7989 39.9693 85.0302 39.7632 85.3073 39.6425C85.5843 39.5218 85.8928 39.4928 86.1875 39.5597C86.4823 39.6266 86.7479 39.786 86.9457 40.0145C87.1434 40.2431 87.263 40.5288 87.2869 40.8301C87.3587 41.7215 87.3958 42.6181 87.3984 43.5197C87.3811 55.0476 82.7938 66.0982 74.642 74.2493C66.4902 82.4003 55.4391 86.9867 43.9113 87.003ZM39.8999 3.04117C32.1491 3.80948 24.7821 6.78787 18.6751 11.6221C12.5681 16.4563 7.97806 22.9428 5.45102 30.3103C2.92397 37.6777 2.56622 45.616 4.42033 53.1808C6.27443 60.7457 10.2624 67.6189 15.9098 72.9828C21.5572 78.3467 28.6264 81.9757 36.2767 83.4381C43.927 84.9004 51.8363 84.1347 59.0639 81.2319C66.2915 78.3291 72.5333 73.4114 77.0469 67.0638C81.5604 60.7161 84.1559 53.2056 84.5243 45.4255C81.8532 48.7661 78.5173 51.5155 74.728 53.4993C70.9387 55.4832 66.7786 56.6584 62.5114 56.9504C58.2441 57.2424 53.9628 56.6448 49.9385 55.1956C45.9143 53.7464 42.235 51.4771 39.1337 48.5315C36.0324 45.5858 33.5768 42.0282 31.9224 38.0839C30.268 34.1395 29.451 29.8946 29.523 25.618C29.595 21.3414 30.5546 17.1264 32.3408 13.24C34.1271 9.35363 36.7012 5.88067 39.8999 3.04117Z" fill="url(#paint0_linear_147_67)"/>
<path d="M54.1356 43.8655C53.8806 43.8653 53.6303 43.7963 53.4112 43.6658C53.1922 43.5353 53.0124 43.3481 52.8907 43.124L50.0627 37.9561L44.891 35.1282C44.6664 35.0065 44.4787 34.8265 44.348 34.607C44.2172 34.3875 44.1482 34.1368 44.1482 33.8813C44.1482 33.6259 44.2172 33.3751 44.348 33.1557C44.4787 32.9362 44.6664 32.7561 44.891 32.6345L50.0627 29.8066L52.8753 24.6349C53.0086 24.4254 53.1925 24.2529 53.4101 24.1335C53.6277 24.014 53.872 23.9513 54.1202 23.9513C54.3685 23.9513 54.6127 24.014 54.8303 24.1335C55.048 24.2529 55.2319 24.4254 55.3651 24.6349L58.1969 29.8066L63.3687 32.6345C63.5923 32.757 63.7788 32.9374 63.9088 33.1567C64.0387 33.3761 64.1073 33.6264 64.1073 33.8813C64.1073 34.1363 64.0387 34.3866 63.9088 34.6059C63.7788 34.8253 63.5923 35.0057 63.3687 35.1282L58.1969 37.9561L55.3651 43.1278C55.2439 43.3487 55.0663 43.5334 54.8502 43.663C54.6342 43.7927 54.3875 43.8625 54.1356 43.8655ZM48.5335 33.8756L51.7918 35.6584C52.03 35.789 52.226 35.985 52.3566 36.2232L54.1356 39.4815L55.9184 36.2232C56.049 35.985 56.245 35.789 56.4832 35.6584L59.7416 33.8756L56.4832 32.0928C56.2444 31.9646 56.0482 31.7697 55.9184 31.5318L54.1356 28.2697L52.3566 31.5279C52.227 31.767 52.0308 31.9632 51.7918 32.0928L48.5335 33.8756Z" fill="url(#paint1_linear_147_67)"/>
<path d="M72.6747 29.4339C72.4196 29.4335 72.1693 29.3649 71.9497 29.2352C71.7302 29.1055 71.5493 28.9194 71.4259 28.6962L67.9371 22.3103L61.5513 18.833C61.3276 18.7105 61.1411 18.5301 61.0111 18.3108C60.8812 18.0914 60.8126 17.8411 60.8126 17.5862C60.8126 17.3312 60.8812 17.0809 61.0111 16.8616C61.1411 16.6422 61.3276 16.4618 61.5513 16.3394L67.9371 12.8467L71.4259 6.46466C71.5597 6.25522 71.7439 6.08285 71.9618 5.96344C72.1798 5.84403 72.4242 5.78143 72.6727 5.78143C72.9212 5.78143 73.1658 5.84403 73.3837 5.96344C73.6016 6.08285 73.7859 6.25522 73.9196 6.46466L77.4123 12.8467L83.7943 16.3394C84.0179 16.4618 84.2044 16.6422 84.3344 16.8616C84.4643 17.0809 84.5329 17.3312 84.5329 17.5862C84.5329 17.8411 84.4643 18.0914 84.3344 18.3108C84.2044 18.5301 84.0179 18.7105 83.7943 18.833L77.4123 22.3218L73.9196 28.7077C73.7956 28.9287 73.6148 29.1126 73.396 29.2402C73.1771 29.3679 72.9281 29.4348 72.6747 29.4339ZM65.1937 17.5727L69.6661 20.0203C69.9052 20.1498 70.1014 20.346 70.2309 20.5851L72.6747 25.0537L75.1222 20.5812C75.2504 20.3435 75.4455 20.1485 75.6832 20.0203L80.1518 17.5727L75.6832 15.129C75.4453 14.9992 75.2503 14.803 75.1222 14.5642L72.6747 10.0918L70.2309 14.5642C70.1003 14.8025 69.9044 14.9984 69.6661 15.129L65.1937 17.5727Z" fill="url(#paint2_linear_147_67)"/>
<defs>
<linearGradient id="paint0_linear_147_67" x1="43.6992" y1="0" x2="43.6992" y2="87.0049" gradientUnits="userSpaceOnUse">
<stop stop-color="#5A2FED"/>
<stop offset="1" stop-color="#C67EFF"/>
</linearGradient>
<linearGradient id="paint1_linear_147_67" x1="43.6992" y1="0" x2="43.6992" y2="87.0049" gradientUnits="userSpaceOnUse">
<stop stop-color="#5A2FED"/>
<stop offset="1" stop-color="#C67EFF"/>
</linearGradient>
<linearGradient id="paint2_linear_147_67" x1="43.6992" y1="0" x2="43.6992" y2="87.0049" gradientUnits="userSpaceOnUse">
<stop stop-color="#5A2FED"/>
<stop offset="1" stop-color="#C67EFF"/>
</linearGradient>
</defs>
</svg>
