<svg width="105" height="100" viewBox="0 0 105 100" fill="none" xmlns="http://www.w3.org/2000/svg">
<path d="M73.2344 66.8281H85.3093C89.9776 66.8281 94.4546 64.9736 97.7555 61.6727C101.056 58.3718 102.911 53.8947 102.911 49.2265C102.911 44.5583 101.056 40.0813 97.7555 36.7803C94.4546 33.4794 89.9776 31.625 85.3093 31.625C84.4168 31.6246 83.5256 31.6929 82.6436 31.8293C82.2836 27.4293 80.2834 23.3252 77.0395 20.3308C73.7956 17.3364 69.5449 15.6702 65.1302 15.6628C64.4973 15.6639 63.8648 15.698 63.2354 15.765C61.8994 11.3576 59.0383 7.56962 55.1643 5.07929C51.2902 2.58896 46.6562 1.55888 42.092 2.17347C37.5278 2.78807 33.3313 5.00722 30.254 8.43359C27.1767 11.86 25.4194 16.2698 25.2969 20.8736C22.2532 20.8303 19.2313 21.3924 16.4067 22.5273C13.5822 23.6621 11.0114 25.347 8.84373 27.4841C6.67606 29.6211 4.95477 32.1677 3.7799 34.9758C2.60503 37.7839 2 40.7976 2 43.8416C2 46.8855 2.60503 49.8992 3.7799 52.7073C4.95477 55.5154 6.67606 58.062 8.84373 60.199C11.0114 62.3361 13.5822 64.021 16.4067 65.1558C19.2313 66.2907 22.2532 66.8528 25.2969 66.8095H27.8094M41.6213 42.5574V78.0067L25.8449 90.0909M51.4856 63.1591V88.1868M60.7322 53.3041V73.121L81.0552 89.8958M56.3852 93.0911C56.3861 94.0614 56.0992 95.0103 55.5606 95.8175C55.0221 96.6247 54.2562 97.254 53.3598 97.6258C52.4635 97.9976 51.477 98.0951 50.5253 97.906C49.5735 97.7169 48.6992 97.2497 48.0131 96.5636C47.3269 95.8774 46.8597 95.0031 46.6706 94.0513C46.4816 93.0996 46.5791 92.1131 46.9508 91.2168C47.3226 90.3204 47.9519 89.5546 48.7591 89.016C49.5664 88.4775 50.5152 88.1905 51.4856 88.1914C52.785 88.1914 54.0313 88.7076 54.9501 89.6265C55.869 90.5454 56.3852 91.7916 56.3852 93.0911ZM89.3095 91.2144C90.3395 93.7195 89.1437 96.5853 86.6386 97.6152C84.1335 98.6452 81.2678 97.4494 80.2378 94.9443C79.2078 92.4392 80.4037 89.5735 82.9088 88.5435C85.4138 87.5135 88.2796 88.7094 89.3095 91.2144ZM26.862 93.0725C26.862 95.781 24.6662 97.9768 21.9577 97.9768C19.2491 97.9768 17.0534 95.781 17.0534 93.0725C17.0534 90.3639 19.2491 88.1682 21.9577 88.1682C24.6662 88.1682 26.862 90.3639 26.862 93.0725Z" stroke="url(#paint0_linear_147_62)" stroke-width="2.5" stroke-linecap="round" stroke-linejoin="round"/>
<defs>
<linearGradient id="paint0_linear_147_62" x1="52.4554" y1="2" x2="52.4554" y2="98" gradientUnits="userSpaceOnUse">
<stop stop-color="#5A2FED"/>
<stop offset="1" stop-color="#C67EFF"/>
</linearGradient>
</defs>
</svg>
