<svg width="119" height="112" viewBox="0 0 119 112" fill="none" xmlns="http://www.w3.org/2000/svg">
<path d="M17.4446 27.7409H27.7409L38.0373 43.1855H45.7596M17.4446 27.7409C17.4446 29.2683 16.9917 30.7613 16.1431 32.0312C15.2946 33.3012 14.0885 34.2909 12.6775 34.8754C11.2664 35.4599 9.71373 35.6128 8.21575 35.3148C6.71777 35.0169 5.34178 34.2814 4.26179 33.2014C3.18181 32.1214 2.44635 30.7454 2.14839 29.2475C1.85042 27.7495 2.00334 26.1968 2.58782 24.7857C3.17231 23.3747 4.16207 22.1686 5.43199 21.3201C6.70191 20.4715 8.19496 20.0187 9.72228 20.0187C11.7704 20.0187 13.7346 20.8322 15.1828 22.2805C16.631 23.7287 17.4446 25.6929 17.4446 27.7409ZM17.4446 56.056C17.4446 57.5833 16.9917 59.0763 16.1431 60.3463C15.2946 61.6162 14.0885 62.606 12.6775 63.1904C11.2664 63.7749 9.71373 63.9278 8.21575 63.6299C6.71777 63.3319 5.34178 62.5964 4.26179 61.5165C3.18181 60.4365 2.44635 59.0605 2.14839 57.5625C1.85042 56.0645 2.00334 54.5118 2.58782 53.1008C3.17231 51.6897 4.16207 50.4837 5.43199 49.6351C6.70191 48.7866 8.19496 48.3337 9.72228 48.3337C11.7704 48.3337 13.7346 49.1473 15.1828 50.5955C16.631 52.0437 17.4446 54.0079 17.4446 56.056ZM17.4446 56.056H61.2042M38.0373 14.8705L48.3337 30.315H61.2042M17.4446 84.371C17.4446 82.8437 16.9917 81.3506 16.1431 80.0807C15.2946 78.8108 14.0885 77.821 12.6775 77.2366C11.2664 76.6521 9.71373 76.4992 8.21575 76.7971C6.71777 77.0951 5.34178 77.8305 4.26179 78.9105C3.18181 79.9905 2.44635 81.3665 2.14839 82.8645C1.85042 84.3625 2.00334 85.9152 2.58782 87.3262C3.17231 88.7373 4.16207 89.9433 5.43199 90.7919C6.70191 91.6404 8.19496 92.0933 9.72228 92.0933C11.7704 92.0933 13.7346 91.2797 15.1828 89.8315C16.631 88.3833 17.4446 86.4191 17.4446 84.371ZM17.4446 84.371L27.7409 84.371L38.0373 68.9265H86.9451V76.3656L116.47 56.3649L86.9451 35.1801V43.1855H61.2042M38.0373 97.2415L48.3337 81.7969H61.2042M76.6487 56.056H81.7969M66.3524 56.056H71.5006M66.3524 30.315H71.5006M66.3524 81.7969H71.5006M56.056 43.1855H50.9078M40.6114 9.72228C40.6114 11.2496 40.1585 12.7426 39.31 14.0126C38.4615 15.2825 37.2554 16.2723 35.8443 16.8567C34.4333 17.4412 32.8806 17.5941 31.3826 17.2962C29.8846 16.9982 28.5086 16.2627 27.4286 15.1828C26.3487 14.1028 25.6132 12.7268 25.3152 11.2288C25.0173 9.73084 25.1702 8.17814 25.7547 6.76708C26.3392 5.35602 27.3289 4.14996 28.5988 3.30142C29.8688 2.45289 31.3618 2 32.8891 2C34.9372 2 36.9014 2.81359 38.3496 4.2618C39.7978 5.71001 40.6114 7.67421 40.6114 9.72228ZM40.6114 102.39C40.6114 100.862 40.1585 99.3693 39.31 98.0994C38.4615 96.8295 37.2554 95.8397 35.8443 95.2552C34.4333 94.6707 32.8806 94.5178 31.3826 94.8158C29.8846 95.1138 28.5086 95.8492 27.4286 96.9292C26.3487 98.0092 25.6132 99.3852 25.3152 100.883C25.0173 102.381 25.1702 103.934 25.7547 105.345C26.3392 106.756 27.3289 107.962 28.5988 108.811C29.8688 109.659 31.3618 110.112 32.8891 110.112C34.9372 110.112 36.9014 109.298 38.3496 107.85C39.7978 106.402 40.6114 104.438 40.6114 102.39Z" stroke="url(#paint0_linear_134_644)" stroke-width="2.4" stroke-miterlimit="10"/>
<defs>
<linearGradient id="paint0_linear_134_644" x1="59.235" y1="2" x2="59.235" y2="110.112" gradientUnits="userSpaceOnUse">
<stop stop-color="#5A2FED"/>
<stop offset="1" stop-color="#C67EFF"/>
</linearGradient>
</defs>
</svg>
