<svg width="110" height="110" viewBox="0 0 110 110" fill="none" xmlns="http://www.w3.org/2000/svg">
<path d="M38.8696 95.3739C39.5323 95.3739 40.0696 94.8367 40.0696 94.1739C40.0696 93.5112 39.5323 92.9739 38.8696 92.9739V95.3739ZM6.6087 94.1739H5.4087V95.3739H6.6087V94.1739ZM7.8087 66.5217C7.8087 65.859 7.27144 65.3217 6.6087 65.3217C5.94595 65.3217 5.4087 65.859 5.4087 66.5217H7.8087ZM108 15.8261H109.2V14.6261H108V15.8261ZM29.2835 9.53519L29.752 10.6399L30.238 10.4338L30.4144 9.93639L29.2835 9.53519ZM31.9565 2V0.8H31.1089L30.8256 1.5988L31.9565 2ZM41.1739 2L42.3038 1.59573L42.0191 0.8H41.1739V2ZM43.87 9.53519L42.7402 9.93946L42.9188 10.4385L43.4079 10.6427L43.87 9.53519ZM50.5526 12.3235L50.0905 13.431L50.5857 13.6376L51.0699 13.4063L50.5526 12.3235ZM57.7882 8.86698L58.6413 8.023L58.0411 7.41632L57.271 7.78419L57.7882 8.86698ZM64.2174 15.3652L65.3002 15.8824L65.6639 15.121L65.0704 14.5212L64.2174 15.3652ZM60.7609 22.6009L59.6781 22.0836L59.4468 22.5678L59.6534 23.063L60.7609 22.6009ZM63.5491 29.2835L62.4416 29.7455L62.647 30.2378L63.1501 30.4152L63.5491 29.2835ZM71.1304 31.9565H72.3304V31.1072L71.5295 30.8248L71.1304 31.9565ZM71.1304 41.1739L71.5347 42.3038L72.3304 42.0191V41.1739H71.1304ZM63.5952 43.87L63.191 42.7402L62.6919 42.9188L62.4878 43.4079L63.5952 43.87ZM60.8069 50.5526L59.6995 50.0905L59.4929 50.5857L59.7241 51.0699L60.8069 50.5526ZM64.2635 57.7882L65.1074 58.6413L65.7141 58.0411L65.3462 57.271L64.2635 57.7882ZM57.7652 64.2174L57.248 65.3002L58.0094 65.6639L58.6092 65.0704L57.7652 64.2174ZM50.5296 60.7609L51.0468 59.6781L50.5627 59.4468L50.0675 59.6534L50.5296 60.7609ZM43.847 63.5491L43.3849 62.4416L42.8926 62.647L42.7152 63.1501L43.847 63.5491ZM41.1739 71.1304V72.3304H42.0232L42.3056 71.5295L41.1739 71.1304ZM31.9565 71.1304L30.8267 71.5347L31.1114 72.3304H31.9565V71.1304ZM29.2604 63.5952L30.3903 63.191L30.2117 62.6919L29.7225 62.4878L29.2604 63.5952ZM22.5778 60.8069L23.0399 59.6995L22.5473 59.4939L22.0648 59.7221L22.5778 60.8069ZM15.3652 64.2174L14.5167 65.0659L15.1142 65.6635L15.8781 65.3022L15.3652 64.2174ZM8.91304 57.7652L7.83025 57.248L7.46446 58.0137L8.06452 58.6138L8.91304 57.7652ZM12.3696 50.5296L13.4524 51.0468L13.6836 50.5627L13.477 50.0675L12.3696 50.5296ZM9.58132 43.847L10.6888 43.3849L10.4834 42.8926L9.98035 42.7152L9.58132 43.847ZM2 41.1739H0.8V42.0232L1.60098 42.3056L2 41.1739ZM2 31.9565L1.59573 30.8267L0.8 31.1114V31.9565H2ZM9.53519 29.2604L9.93946 30.3903L10.4385 30.2117L10.6427 29.7225L9.53519 29.2604ZM12.3235 22.5778L13.431 23.0399L13.6365 22.5473L13.4083 22.0648L12.3235 22.5778ZM8.91304 15.3652L8.06451 14.5167L7.46698 15.1142L7.82821 15.8781L8.91304 15.3652ZM15.3652 8.91304L15.8824 7.83025L15.1167 7.46446L14.5167 8.06451L15.3652 8.91304ZM22.6009 12.3696L22.0836 13.4524L22.5716 13.6855L23.0694 13.4743L22.6009 12.3696ZM75.7391 23.8435C75.0764 23.8435 74.5391 24.3807 74.5391 25.0435C74.5391 25.7062 75.0764 26.2435 75.7391 26.2435V23.8435ZM108 26.2435C108.663 26.2435 109.2 25.7062 109.2 25.0435C109.2 24.3807 108.663 23.8435 108 23.8435V26.2435ZM38.8696 92.9739H6.6087V95.3739H38.8696V92.9739ZM7.8087 94.1739V66.5217H5.4087V94.1739H7.8087ZM48.087 99.9826H52.6957V97.5826H48.087V99.9826ZM57.3043 99.9826H61.913V97.5826H57.3043V99.9826ZM66.5217 99.9826H80.3478V97.5826H66.5217V99.9826ZM84.9565 99.9826H89.5652V97.5826H84.9565V99.9826ZM94.1739 99.9826H98.7826V97.5826H94.1739V99.9826ZM48.087 90.7652H52.6957V88.3652H48.087V90.7652ZM57.3043 90.7652H61.913V88.3652H57.3043V90.7652ZM66.5217 90.7652H71.1304V88.3652H66.5217V90.7652ZM75.7391 90.7652H80.3478V88.3652H75.7391V90.7652ZM84.9565 90.7652H89.5652V88.3652H84.9565V90.7652ZM94.1739 90.7652H98.7826V88.3652H94.1739V90.7652ZM57.3043 81.5478H103.391V79.1478H57.3043V81.5478ZM103.391 81.5478C104.295 81.5478 105.162 81.907 105.802 82.5462L107.499 80.8492C106.409 79.7598 104.932 79.1478 103.391 79.1478V81.5478ZM105.802 82.5462C106.441 83.1855 106.8 84.0525 106.8 84.9565H109.2C109.2 83.416 108.588 81.9385 107.499 80.8492L105.802 82.5462ZM106.8 84.9565V103.391H109.2V84.9565H106.8ZM106.8 103.391C106.8 104.295 106.441 105.162 105.802 105.802L107.499 107.499C108.588 106.409 109.2 104.932 109.2 103.391H106.8ZM105.802 105.802C105.162 106.441 104.295 106.8 103.391 106.8V109.2C104.932 109.2 106.409 108.588 107.499 107.499L105.802 105.802ZM103.391 106.8H43.4783V109.2H103.391V106.8ZM43.4783 106.8C42.5742 106.8 41.7072 106.441 41.0679 105.802L39.3709 107.499C40.4602 108.588 41.9377 109.2 43.4783 109.2V106.8ZM41.0679 105.802C40.4287 105.162 40.0696 104.295 40.0696 103.391H37.6696C37.6696 104.932 38.2815 106.409 39.3709 107.499L41.0679 105.802ZM40.0696 103.391V84.9565H37.6696V103.391H40.0696ZM40.0696 84.9565C40.0696 84.0525 40.4287 83.1855 41.0679 82.5462L39.3709 80.8492C38.2815 81.9385 37.6696 83.416 37.6696 84.9565H40.0696ZM41.0679 82.5462C41.7072 81.907 42.5742 81.5478 43.4783 81.5478V79.1478C41.9377 79.1478 40.4602 79.7598 39.3709 80.8492L41.0679 82.5462ZM43.4783 81.5478H52.6957V79.1478H43.4783V81.5478ZM86.1565 80.3478V51.5435H83.7565V80.3478H86.1565ZM86.1565 51.5435C86.1565 50.3339 86.637 49.1738 87.4924 48.3185L85.7953 46.6214C84.4899 47.9268 83.7565 49.6973 83.7565 51.5435H86.1565ZM87.4924 48.3185C88.3477 47.4631 89.5078 46.9826 90.7174 46.9826V44.5826C88.8712 44.5826 87.1007 45.316 85.7953 46.6214L87.4924 48.3185ZM90.7174 46.9826C91.927 46.9826 93.0871 47.4631 93.9424 48.3185L95.6395 46.6214C94.334 45.316 92.5635 44.5826 90.7174 44.5826V46.9826ZM93.9424 48.3185C94.7977 49.1738 95.2783 50.3339 95.2783 51.5435H97.6783C97.6783 49.6973 96.9449 47.9268 95.6395 46.6214L93.9424 48.3185ZM95.2783 51.5435V67.6739H97.6783V51.5435H95.2783ZM95.2783 67.6739C95.2783 69.5201 96.0117 71.2906 97.3171 72.596L99.0141 70.8989C98.1588 70.0436 97.6783 68.8835 97.6783 67.6739H95.2783ZM97.3171 72.596C98.6225 73.9014 100.393 74.6348 102.239 74.6348V72.2348C101.03 72.2348 99.8695 71.7543 99.0141 70.8989L97.3171 72.596ZM102.239 74.6348C104.085 74.6348 105.856 73.9014 107.161 72.596L105.464 70.8989C104.609 71.7543 103.449 72.2348 102.239 72.2348V74.6348ZM107.161 72.596C108.467 71.2906 109.2 69.5201 109.2 67.6739H106.8C106.8 68.8835 106.319 70.0436 105.464 70.8989L107.161 72.596ZM109.2 67.6739V15.8261H106.8V67.6739H109.2ZM108 14.6261H63.0652V17.0261H108V14.6261ZM30.4144 9.93639L33.0875 2.4012L30.8256 1.5988L28.1525 9.134L30.4144 9.93639ZM31.9565 3.2H41.1739V0.8H31.9565V3.2ZM40.0441 2.40427L42.7402 9.93946L44.9999 9.13093L42.3038 1.59573L40.0441 2.40427ZM43.4079 10.6427L50.0905 13.431L51.0147 11.216L44.3321 8.42773L43.4079 10.6427ZM51.0699 13.4063L58.3055 9.94977L57.271 7.78419L50.0354 11.2407L51.0699 13.4063ZM56.9352 9.71096L63.3643 16.2092L65.0704 14.5212L58.6413 8.023L56.9352 9.71096ZM63.1346 14.8479L59.6781 22.0836L61.8437 23.1181L65.3002 15.8824L63.1346 14.8479ZM59.6534 23.063L62.4416 29.7455L64.6566 28.8214L61.8683 22.1388L59.6534 23.063ZM63.1501 30.4152L70.7314 33.0882L71.5295 30.8248L63.9481 28.1518L63.1501 30.4152ZM69.9304 31.9565V41.1739H72.3304V31.9565H69.9304ZM70.7262 40.0441L63.191 42.7402L63.9995 44.9999L71.5347 42.3038L70.7262 40.0441ZM62.4878 43.4079L59.6995 50.0905L61.9144 51.0147L64.7027 44.3321L62.4878 43.4079ZM59.7241 51.0699L63.1807 58.3055L65.3462 57.271L61.8897 50.0354L59.7241 51.0699ZM63.4195 56.9352L56.9213 63.3643L58.6092 65.0704L65.1074 58.6413L63.4195 56.9352ZM58.2825 63.1346L51.0468 59.6781L50.0123 61.8437L57.248 65.3002L58.2825 63.1346ZM50.0675 59.6534L43.3849 62.4416L44.309 64.6566L50.9916 61.8683L50.0675 59.6534ZM42.7152 63.1501L40.0422 70.7314L42.3056 71.5295L44.9787 63.9481L42.7152 63.1501ZM41.1739 69.9304H31.9565V72.3304H41.1739V69.9304ZM33.0864 70.7262L30.3903 63.191L28.1305 63.9995L30.8267 71.5347L33.0864 70.7262ZM29.7225 62.4878L23.0399 59.6995L22.1157 61.9144L28.7983 64.7027L29.7225 62.4878ZM22.0648 59.7221L14.8522 63.1325L15.8781 65.3022L23.0908 61.8918L22.0648 59.7221ZM16.2137 63.3689L9.76157 56.9167L8.06452 58.6138L14.5167 65.0659L16.2137 63.3689ZM9.99584 58.2825L13.4524 51.0468L11.2868 50.0123L7.83025 57.248L9.99584 58.2825ZM13.477 50.0675L10.6888 43.3849L8.47386 44.309L11.2621 50.9916L13.477 50.0675ZM9.98035 42.7152L2.39902 40.0422L1.60098 42.3056L9.1823 44.9787L9.98035 42.7152ZM3.2 41.1739V31.9565H0.8V41.1739H3.2ZM2.40427 33.0864L9.93946 30.3903L9.13093 28.1305L1.59573 30.8267L2.40427 33.0864ZM10.6427 29.7225L13.431 23.0399L11.216 22.1157L8.42773 28.7983L10.6427 29.7225ZM13.4083 22.0648L9.99788 14.8522L7.82821 15.8781L11.2387 23.0908L13.4083 22.0648ZM9.76157 16.2137L16.2137 9.76157L14.5167 8.06451L8.06451 14.5167L9.76157 16.2137ZM14.8479 9.99584L22.0836 13.4524L23.1181 11.2868L15.8824 7.83025L14.8479 9.99584ZM23.0694 13.4743L29.752 10.6399L28.8149 8.43045L22.1323 11.2648L23.0694 13.4743ZM44.0065 37.0952C44.0065 41.2049 40.6749 44.5365 36.5652 44.5365V46.9365C42.0004 46.9365 46.4065 42.5304 46.4065 37.0952H44.0065ZM36.5652 44.5365C32.4555 44.5365 29.1239 41.2049 29.1239 37.0952H26.7239C26.7239 42.5304 31.13 46.9365 36.5652 46.9365V44.5365ZM29.1239 37.0952C29.1239 32.9855 32.4555 29.6539 36.5652 29.6539V27.2539C31.13 27.2539 26.7239 31.66 26.7239 37.0952H29.1239ZM36.5652 29.6539C40.6749 29.6539 44.0065 32.9855 44.0065 37.0952H46.4065C46.4065 31.66 42.0004 27.2539 36.5652 27.2539V29.6539ZM75.7391 26.2435H108V23.8435H75.7391V26.2435Z" fill="url(#paint0_linear_134_649)"/>
<defs>
<linearGradient id="paint0_linear_134_649" x1="55" y1="2" x2="55" y2="108" gradientUnits="userSpaceOnUse">
<stop stop-color="#5A2FED"/>
<stop offset="1" stop-color="#C67EFF"/>
</linearGradient>
</defs>
</svg>
