<svg width="110" height="110" viewBox="0 0 110 110" fill="none" xmlns="http://www.w3.org/2000/svg">
<path d="M41.1739 65.1391V50.3913C41.1739 49.169 41.6595 47.9968 42.5238 47.1325C43.3881 46.2682 44.5603 45.7826 45.7826 45.7826H64.2174C65.4397 45.7826 66.6119 46.2682 67.4762 47.1325C68.3405 47.9968 68.8261 49.169 68.8261 50.3913V65.1391M61.913 29.6522C61.913 33.4701 58.818 36.5652 55 36.5652C51.182 36.5652 48.087 33.4701 48.087 29.6522C48.087 25.8342 51.182 22.7391 55 22.7391C58.818 22.7391 61.913 25.8342 61.913 29.6522ZM2 2H108V108H2V2ZM82.6522 41.1739C82.6522 56.4458 70.2719 68.8261 55 68.8261C39.7281 68.8261 27.3478 56.4458 27.3478 41.1739C27.3478 25.902 39.7281 13.5217 55 13.5217C70.2719 13.5217 82.6522 25.902 82.6522 41.1739ZM50.3913 89.5652C50.3913 91.3987 49.663 93.157 48.3665 94.4535C47.0701 95.7499 45.3117 96.4783 43.4783 96.4783H20.4348C18.6013 96.4783 16.843 95.7499 15.5465 94.4535C14.2501 93.157 13.5217 91.3987 13.5217 89.5652C13.5217 87.7318 14.2501 85.9734 15.5465 84.6769C16.843 83.3805 18.6013 82.6522 20.4348 82.6522H43.4783C45.3117 82.6522 47.0701 83.3805 48.3665 84.6769C49.663 85.9734 50.3913 87.7318 50.3913 89.5652ZM73.4348 89.5652C73.4348 93.3832 70.3397 96.4783 66.5217 96.4783C62.7038 96.4783 59.6087 93.3832 59.6087 89.5652C59.6087 85.7472 62.7038 82.6522 66.5217 82.6522C70.3397 82.6522 73.4348 85.7472 73.4348 89.5652ZM96.4783 89.5652C96.4783 93.3832 93.3832 96.4783 89.5652 96.4783C85.7472 96.4783 82.6522 93.3832 82.6522 89.5652C82.6522 85.7472 85.7472 82.6522 89.5652 82.6522C93.3832 82.6522 96.4783 85.7472 96.4783 89.5652Z" stroke="url(#paint0_linear_134_659)" stroke-width="2.4" stroke-miterlimit="10"/>
<defs>
<linearGradient id="paint0_linear_134_659" x1="55" y1="2" x2="55" y2="108" gradientUnits="userSpaceOnUse">
<stop stop-color="#5A2FED"/>
<stop offset="1" stop-color="#C67EFF"/>
</linearGradient>
</defs>
</svg>
